HIERARCHY
ROOT Hips
{
  OFFSET 53.9676 91.6698 6.95212
  CHANNELS 6 Xposition Yposition Zposition Zrotation Xrotation Yrotation
  JOINT spine
  {
    OFFSET 0 6.84637 0.3937
    CHANNELS 3 Zrotation Xrotation Yrotation
    JOINT spine1
    {
      OFFSET 0 9.49621 0
      CHANNELS 3 Zrotation Xrotation Yrotation
      JOINT spine2
      {
        OFFSET 0 9.09909 0
        CHANNELS 3 Zrotation Xrotation Yrotation
        JOINT Neck
        {
          OFFSET 0 23.3612 1.11378
          CHANNELS 3 Zrotation Xrotation Yrotation
          JOINT Head
          {
            OFFSET 0 7.05802 0
            CHANNELS 3 Zrotation Xrotation Yrotation
            End Site
            {
              OFFSET 0 17.0844 -5.63419
            }
          }
        }
        JOINT RightShoulder
        {
          OFFSET -3.83136 9.82631 -0.533491
          CHANNELS 3 Zrotation Xrotation Yrotation
          JOINT RightArm
          {
            OFFSET 0 12.8881 0
            CHANNELS 3 Zrotation Xrotation Yrotation
            JOINT RightArmRoll
            {
              OFFSET 0 6.50616 0
              CHANNELS 3 Zrotation Xrotation Yrotation
              JOINT RightForeArm
              {
                OFFSET 0 18.9501 0
                CHANNELS 3 Zrotation Xrotation Yrotation
                JOINT RightForeArmRoll
                {
                  OFFSET 0 7.30092 0
                  CHANNELS 3 Zrotation Xrotation Yrotation
                  JOINT RightHand
                  {
                    OFFSET 0 14.6514 0
                    CHANNELS 3 Zrotation Xrotation Yrotation
                    End Site
                    {
                      OFFSET 0 0 0
                    }
                  }
                }
              }
            }
          }
        }
        JOINT LeftShoulder
        {
          OFFSET 3.83136 9.82631 -0.533491
          CHANNELS 3 Zrotation Xrotation Yrotation
          JOINT LeftArm
          {
            OFFSET 0 12.8881 0
            CHANNELS 3 Zrotation Xrotation Yrotation
            JOINT LeftArmRoll
            {
              OFFSET 0 6.50617 0
              CHANNELS 3 Zrotation Xrotation Yrotation
              JOINT LeftForeArm
              {
                OFFSET 0 18.9501 0
                CHANNELS 3 Zrotation Xrotation Yrotation
                JOINT LeftForeArmRoll
                {
                  OFFSET 0 7.30092 0
                  CHANNELS 3 Zrotation Xrotation Yrotation
                  JOINT LeftHand
                  {
                    OFFSET 0 14.6514 0
                    CHANNELS 3 Zrotation Xrotation Yrotation
                    End Site
                    {
                      OFFSET 0 0 0
                    }
                  }
                }
              }
            }
          }
        }
      }
    }
  }
  JOINT RightUpLeg
  {
    OFFSET -6.06837 -1.11278 -0.933477
    CHANNELS 3 Zrotation Xrotation Yrotation
    JOINT RightUpLegRoll
    {
      OFFSET 0 17.1796 0
      CHANNELS 3 Zrotation Xrotation Yrotation
      JOINT RightLeg
      {
        OFFSET 0 -21.2743 0
        CHANNELS 3 Zrotation Xrotation Yrotation
        JOINT RightLegRoll
        {
          OFFSET 0 21.3439 0
          CHANNELS 3 Zrotation Xrotation Yrotation
          JOINT RightFoot
          {
            OFFSET 0 17.7652 0
            CHANNELS 3 Zrotation Xrotation Yrotation
            JOINT RightToeBase
            {
              OFFSET 0 14.8508 0
              CHANNELS 3 Zrotation Xrotation Yrotation
              End Site
              {
                OFFSET 0.0062947 7.19214 -0.829005
              }
            }
          }
        }
      }
    }
  }
  JOINT LeftUpLeg
  {
    OFFSET 6.06837 -1.11278 -0.933477
    CHANNELS 3 Zrotation Xrotation Yrotation
    JOINT LeftUpLegRoll
    {
      OFFSET 0 17.1797 0
      CHANNELS 3 Zrotation Xrotation Yrotation
      JOINT LeftLeg
      {
        OFFSET 0 21.2742 0
        CHANNELS 3 Zrotation Xrotation Yrotation
        JOINT LeftLegRoll
        {
          OFFSET 0 21.5412 0
          CHANNELS 3 Zrotation Xrotation Yrotation
          JOINT LeftFoot
          {
            OFFSET 0 17.5679 0
            CHANNELS 3 Zrotation Xrotation Yrotation
            JOINT LeftToeBase
            {
              OFFSET 0 14.8508 0
              CHANNELS 3 Zrotation Xrotation Yrotation
              End Site
              {
                OFFSET -0.0282102 7.19213 -0.829005
              }
            }
          }
        }
      }
    }
  }
}
MOTION
Frames: 10
Frame Time: 0.00208333
54.398 91.6224 6.46596 0.819097 -4.9294 -0.179039 0.141056 -1.38533 -0.144979 0.278373 1.21635 -0.301959 0.282195 2.8614 -0.306663 -6.87143 32.6245 3.368 3.78202 -10.379 0.877292 72.3368 8.67265 2.47424 100.51 4.13911 14.4105 -7.71787e-007 4.90639e-007 -1.54462e-006 10.8852 10.5558 -2.00286 -3.05973e-006 3.86761e-007 -3 8.0289 -4.95144 0.697674 -70.9487 3.0725 -0.0832766 -104.432 10.0958 -23.0179 -7.557e-006 6.08267e-007 1.99957e-006 -10.3625 2.58715 0.562067 1.3074e-005 -3.85381e-006 3.00109 -8.02893 -4.95146 -0.697672 174.094 -1.95943 2.24518 -180 7.01525e-015 178.833 177.817 5.0089 179.971 2.79486e-006 -1.13655e-006 0.0533988 -18.7803 68.0399 19.5555 8.13649 25.2326 -3.48773 -176.32 -5.55147 0.384588 -1.07169e-005 -4.64205e-006 -1.2082 -1.5009 -4.14053 0.0486378 5.25717e-007 -7.34055e-006 -0.0367328 18.7408 67.9819 -19.5168 -8.13649 25.2326 3.48774 
54.3929 91.617 6.46723 0.819865 -4.93239 -0.178268 0.14099 -1.38543 -0.145023 0.27694 1.21823 -0.30157 0.280766 2.86329 -0.306242 -6.86086 32.6191 3.36561 3.77227 -10.3799 0.878263 72.3467 8.67631 2.47393 100.495 4.13425 14.3972 -7.71787e-007 4.90639e-007 -1.54462e-006 10.8981 10.5718 -2.00524 -3.05973e-006 3.86761e-007 -3 8.0289 -4.95144 0.697674 -70.9397 3.06432 -0.0806468 -104.438 10.0938 -23.01 -7.557e-006 6.08267e-007 1.99957e-006 -10.3684 2.5923 0.562533 1.3074e-005 -3.85381e-006 3.00109 -8.02893 -4.95146 -0.697672 174.092 -1.96413 2.24707 -180 7.01525e-015 178.833 177.815 5.00928 179.971 2.79486e-006 -1.13655e-006 0.0533993 -18.7799 68.0395 19.5551 8.13649 25.2326 -3.48773 -176.321 -5.55596 0.38572 -1.07169e-005 -4.64205e-006 -1.2082 -1.49986 -4.13886 0.0487501 5.25717e-007 -7.34055e-006 -0.0367328 18.7413 67.9825 -19.5174 -8.13649 25.2326 3.48774 
54.3946 91.6184 6.4757 0.820989 -4.9354 -0.177395 0.140891 -1.38561 -0.145089 0.275352 1.22009 -0.301183 0.279183 2.86514 -0.305821 -6.85032 32.6145 3.36322 3.76252 -10.3816 0.879203 72.3568 8.68014 2.47368 100.48 4.12927 14.3843 -7.71787e-007 4.90639e-007 -1.54462e-006 10.9107 10.5875 -2.00758 -3.05973e-006 3.86761e-007 -3 8.0289 -4.95144 0.697674 -70.9302 3.05587 -0.077952 -104.445 10.0922 -23.003 -7.557e-006 6.08267e-007 1.99957e-006 -10.3732 2.59651 0.562815 1.3074e-005 -3.85381e-006 3.00109 -8.02893 -4.95146 -0.697672 174.09 -1.96875 2.24936 -180 7.01525e-015 178.833 177.814 5.00992 179.971 2.79486e-006 -1.13655e-006 0.0534001 -18.7797 68.0392 19.5548 8.13649 25.2326 -3.48773 -176.323 -5.56053 0.387203 -1.07169e-005 -4.64205e-006 -1.2082 -1.4987 -4.13705 0.0488721 5.25717e-007 -7.34055e-006 -0.0367328 18.7418 67.9831 -19.5179 -8.13649 25.2326 3.48774 
54.3929 91.6178 6.47478 0.822362 -4.93842 -0.17645 0.140769 -1.38584 -0.14517 0.273657 1.22192 -0.300798 0.277494 2.86698 -0.305399 -6.8398 32.6105 3.36084 3.75277 -10.3838 0.880122 72.3669 8.68409 2.47346 100.464 4.12421 14.3719 -7.71787e-007 4.90639e-007 -1.54462e-006 10.9231 10.6029 -2.00989 -3.05973e-006 3.86761e-007 -3 8.0289 -4.95144 0.697674 -70.9204 3.04725 -0.0752119 -104.453 10.0907 -22.9965 -7.557e-006 6.08267e-007 1.99957e-006 -10.3773 2.60006 0.562969 1.3074e-005 -3.85381e-006 3.00109 -8.02893 -4.95146 -0.697672 174.088 -1.97333 2.25195 -180 7.01525e-015 178.833 177.812 5.01074 179.971 2.79486e-006 -1.13655e-006 0.053401 -18.7795 68.039 19.5546 8.13649 25.2326 -3.48773 -176.325 -5.56515 0.388932 -1.07169e-005 -4.64205e-006 -1.2082 -1.49745 -4.13515 0.0490009 5.25717e-007 -7.34055e-006 -0.0367328 18.7424 67.9838 -19.5185 -8.13649 25.2326 3.48774 
54.3929 91.6165 6.4715 0.823878 -4.94145 -0.175465 0.140635 -1.38609 -0.145259 0.271901 1.22374 -0.300414 0.275743 2.8688 -0.304976 -6.82929 32.6067 3.35846 3.74301 -10.3862 0.881029 72.3771 8.68811 2.47326 100.449 4.11911 14.3596 -7.71787e-007 4.90639e-007 -1.54462e-006 10.9353 10.6183 -2.01217 -3.05973e-006 3.86761e-007 -3 8.0289 -4.95144 0.697674 -70.9104 3.03851 -0.0724458 -104.461 10.0893 -22.9904 -7.557e-006 6.08267e-007 1.99957e-006 -10.3809 2.60324 0.563049 1.3074e-005 -3.85381e-006 3.00109 -8.02893 -4.95146 -0.697672 174.085 -1.97787 2.25471 -180 7.01525e-015 178.833 177.811 5.01166 179.971 2.79486e-006 -1.13655e-006 0.0534019 -18.7794 68.0389 19.5544 8.13649 25.2326 -3.48773 -176.327 -5.56981 0.390802 -1.07169e-005 -4.64205e-006 -1.2082 -1.49615 -4.1332 0.0491337 5.25717e-007 -7.34055e-006 -0.0367328 18.743 67.9845 -19.5192 -8.13649 25.2326 3.48774 
54.3886 91.6147 6.47398 0.82543 -4.94449 -0.174469 0.140497 -1.38635 -0.14535 0.270129 1.22556 -0.30003 0.273977 2.87062 -0.304554 -6.81879 32.603 3.35608 3.73325 -10.3887 0.881932 72.3873 8.69215 2.47306 100.434 4.114 14.3474 -7.71787e-007 4.90639e-007 -1.54462e-006 10.9474 10.6337 -2.01445 -3.05973e-006 3.86761e-007 -3 8.0289 -4.95144 0.697674 -70.9004 3.02975 -0.0696732 -104.47 10.088 -22.9843 -7.557e-006 6.08267e-007 1.99957e-006 -10.3844 2.60633 0.563111 1.3074e-005 -3.85381e-006 3.00109 -8.02893 -4.95146 -0.697672 174.082 -1.98241 2.25751 -180 7.01525e-015 178.833 177.809 5.01263 179.972 2.79486e-006 -1.13655e-006 0.053403 -18.7793 68.0387 19.5542 8.13649 25.2326 -3.48773 -176.33 -5.57448 0.392707 -1.07169e-005 -4.64205e-006 -1.2082 -1.49483 -4.13123 0.0492674 5.25717e-007 -7.34055e-006 -0.0367328 18.7436 67.9851 -19.5198 -8.13649 25.2326 3.48774 
54.385 91.614 6.477 0.826911 -4.94752 -0.173494 0.140366 -1.3866 -0.145437 0.268388 1.22739 -0.299646 0.272242 2.87245 -0.304131 -6.80828 32.5992 3.3537 3.72349 -10.3911 0.882842 72.3975 8.69615 2.47285 100.419 4.1089 14.335 -7.71787e-007 4.90639e-007 -1.54462e-006 10.9597 10.6491 -2.01674 -3.05973e-006 3.86761e-007 -3 8.0289 -4.95144 0.697674 -70.8905 3.02105 -0.0669137 -104.478 10.0866 -22.9781 -7.557e-006 6.08267e-007 1.99957e-006 -10.3882 2.6096 0.563209 1.3074e-005 -3.85381e-006 3.00109 -8.02893 -4.95146 -0.697672 174.08 -1.98697 2.26022 -180 7.01525e-015 178.833 177.807 5.01352 179.972 2.79486e-006 -1.13655e-006 0.0534039 -18.7791 68.0385 19.554 8.13649 25.2326 -3.48773 -176.332 -5.57913 0.394542 -1.07169e-005 -4.64205e-006 -1.2082 -1.49354 -4.12929 0.0493992 5.25717e-007 -7.34055e-006 -0.0367328 18.7441 67.9858 -19.5204 -8.13649 25.2326 3.48774 
54.3933 91.6139 6.47856 0.828213 -4.95054 -0.172569 0.140251 -1.38682 -0.145514 0.266724 1.22922 -0.299261 0.270583 2.87429 -0.303709 -6.79776 32.5949 3.35131 3.71374 -10.3931 0.883767 72.4076 8.70007 2.47262 100.404 4.10386 14.3225 -7.71787e-007 4.90639e-007 -1.54462e-006 10.9721 10.6646 -2.01905 -3.05973e-006 3.86761e-007 -3 8.0289 -4.95144 0.697674 -70.8807 3.01247 -0.0641867 -104.485 10.0851 -22.9715 -7.557e-006 6.08267e-007 1.99957e-006 -10.3925 2.61334 0.563399 1.3074e-005 -3.85381e-006 3.00109 -8.02893 -4.95146 -0.697672 174.077 -1.99156 2.26273 -180 7.01525e-015 178.833 177.806 5.0143 179.972 2.79486e-006 -1.13655e-006 0.0534048 -18.7789 68.0383 19.5538 8.13649 25.2326 -3.48773 -176.334 -5.58374 0.396201 -1.07169e-005 -4.64205e-006 -1.2082 -1.49232 -4.12742 0.0495261 5.25717e-007 -7.34055e-006 -0.0367328 18.7447 67.9865 -19.521 -8.13649 25.2326 3.48774 
54.4001 91.6165 6.48393 0.829231 -4.95354 -0.171727 0.140162 -1.38697 -0.145573 0.265182 1.23109 -0.298873 0.269046 2.87615 -0.303288 -6.78721 32.5901 3.34893 3.70399 -10.3945 0.884717 72.4176 8.70385 2.47235 100.389 4.09891 14.3095 -7.71787e-007 4.90639e-007 -1.54462e-006 10.9848 10.6804 -2.02141 -3.05973e-006 3.86761e-007 -3 8.0289 -4.95144 0.697674 -70.8714 3.0041 -0.0615118 -104.492 10.0833 -22.9642 -7.557e-006 6.08267e-007 1.99957e-006 -10.3976 2.61783 0.563737 1.3074e-005 -3.85381e-006 3.00109 -8.02893 -4.95146 -0.697672 174.075 -1.9962 2.2649 -180 7.01525e-015 178.833 177.804 5.01485 179.972 2.79486e-006 -1.13655e-006 0.0534054 -18.7786 68.038 19.5535 8.13649 25.2326 -3.48773 -176.336 -5.58828 0.397579 -1.07169e-005 -4.64205e-006 -1.2082 -1.4912 -4.12565 0.0496452 5.25717e-007 -7.34055e-006 -0.0367328 18.7452 67.9871 -19.5216 -8.13649 25.2326 3.48774 
54.3963 91.6183 6.48456 0.829856 -4.95652 -0.170996 0.140108 -1.38705 -0.145609 0.26381 1.23298 -0.298483 0.267678 2.87805 -0.302867 -6.77664 32.5844 3.34653 3.69426 -10.3952 0.8857 72.4274 8.70744 2.47203 100.374 4.09409 14.296 -7.71787e-007 4.90639e-007 -1.54462e-006 10.9979 10.6965 -2.02382 -3.05973e-006 3.86761e-007 -3 8.0289 -4.95144 0.697674 -70.8625 2.99603 -0.0589083 -104.498 10.0813 -22.956 -7.557e-006 6.08267e-007 1.99957e-006 -10.4039 2.62335 0.564276 1.3074e-005 -3.85381e-006 3.00109 -8.02893 -4.95146 -0.697672 174.074 -2.00093 2.26662 -180 7.01525e-015 178.833 177.803 5.01514 179.972 2.79486e-006 -1.13655e-006 0.0534058 -18.7783 68.0376 19.5531 8.13649 25.2326 -3.48773 -176.337 -5.59275 0.39857 -1.07169e-005 -4.64205e-006 -1.2082 -1.49021 -4.12403 0.0497536 5.25717e-007 -7.34055e-006 -0.0367328 18.7457 67.9877 -19.5221 -8.13649 25.2326 3.48774 
